<svg width="1440" height="840" viewBox="0 0 1440 840" fill="none" xmlns="http://www.w3.org/2000/svg" role="img" aria-labelledby="title desc">
  <title id="title">FrameForge app preview</title>
  <desc id="desc">A clean browser video upscaler interface with source settings, before and after preview, and export status.</desc>
  <rect width="1440" height="840" fill="#F7FAFC"/>
  <rect x="40" y="38" width="1360" height="764" rx="8" fill="white" stroke="#D9E5E9"/>
  <rect x="40" y="38" width="1360" height="68" rx="8" fill="#FBFDFE"/>
  <rect x="64" y="56" width="34" height="34" rx="8" fill="#12252D"/>
  <text x="75" y="79" font-family="Inter, Arial, sans-serif" font-size="20" font-weight="800" fill="#DFF9FD">F</text>
  <text x="112" y="80" font-family="Inter, Arial, sans-serif" font-size="22" font-weight="800" fill="#172026">FrameForge</text>
  <rect x="1200" y="58" width="94" height="30" rx="8" fill="#EAF7F1" stroke="#BFE5D1"/>
  <text x="1218" y="78" font-family="Inter, Arial, sans-serif" font-size="13" font-weight="700" fill="#1C8D58">Ready</text>
  <rect x="64" y="130" width="280" height="636" rx="8" fill="#FFFFFF" stroke="#D9E5E9"/>
  <text x="88" y="170" font-family="Inter, Arial, sans-serif" font-size="26" font-weight="800" fill="#172026">Upscale locally</text>
  <text x="88" y="200" font-family="Inter, Arial, sans-serif" font-size="14" fill="#60717A">Choose a clip, preview, export.</text>
  <rect x="88" y="228" width="232" height="128" rx="8" fill="#F6FBFC" stroke="#ABC5CE" stroke-dasharray="7 7"/>
  <circle cx="204" cy="275" r="23" fill="#E7F5F7"/>
  <path d="M204 256V293M204 256L218 270M204 256L190 270" stroke="#0C8EA0" stroke-width="4" stroke-linecap="round" stroke-linejoin="round"/>
  <text x="157" y="326" font-family="Inter, Arial, sans-serif" font-size="16" font-weight="800" fill="#172026">Choose video</text>
  <line x1="88" y1="394" x2="320" y2="394" stroke="#D9E5E9"/>
  <text x="88" y="430" font-family="Inter, Arial, sans-serif" font-size="15" font-weight="800" fill="#172026">Enhancement</text>
  <rect x="88" y="454" width="232" height="36" rx="8" fill="#F9FCFD" stroke="#D9E5E9"/>
  <text x="104" y="477" font-family="Inter, Arial, sans-serif" font-size="13" fill="#60717A">Scale</text>
  <text x="265" y="477" font-family="Inter, Arial, sans-serif" font-size="13" font-weight="800" fill="#172026">2x</text>
  <rect x="88" y="506" width="232" height="36" rx="8" fill="#F9FCFD" stroke="#D9E5E9"/>
  <text x="104" y="529" font-family="Inter, Arial, sans-serif" font-size="13" fill="#60717A">Look</text>
  <text x="238" y="529" font-family="Inter, Arial, sans-serif" font-size="13" font-weight="800" fill="#172026">Natural</text>
  <rect x="88" y="582" width="232" height="8" rx="4" fill="#E4EEF2"/>
  <rect x="88" y="582" width="116" height="8" rx="4" fill="#0C8EA0"/>
  <text x="88" y="568" font-family="Inter, Arial, sans-serif" font-size="13" font-weight="700" fill="#172026">Sharpness</text>
  <line x1="88" y1="626" x2="320" y2="626" stroke="#D9E5E9"/>
  <text x="88" y="662" font-family="Inter, Arial, sans-serif" font-size="15" font-weight="800" fill="#172026">Export</text>
  <rect x="88" y="686" width="232" height="40" rx="8" fill="#0C8EA0"/>
  <text x="165" y="711" font-family="Inter, Arial, sans-serif" font-size="14" font-weight="800" fill="white">Start export</text>
  <rect x="368" y="130" width="704" height="636" rx="8" fill="#FFFFFF" stroke="#D9E5E9"/>
  <text x="392" y="170" font-family="Inter, Arial, sans-serif" font-size="18" font-weight="800" fill="#172026">Preview</text>
  <text x="392" y="194" font-family="Inter, Arial, sans-serif" font-size="13" fill="#60717A">Before and after comparison</text>
  <rect x="392" y="226" width="656" height="410" rx="8" fill="#12252D"/>
  <path d="M392 226H720V636H392V226Z" fill="#20343C"/>
  <path d="M720 226H1048V636H720V226Z" fill="#1A4C56"/>
  <path d="M512 546C558 460 601 424 652 470C689 503 725 503 762 455C810 393 874 407 926 517" stroke="#6EE6F1" stroke-width="16" stroke-linecap="round" opacity=".45"/>
  <path d="M514 544C558 484 604 452 650 494C686 527 724 530 766 488C810 443 872 452 924 530" stroke="#DDFBFF" stroke-width="7" stroke-linecap="round"/>
  <rect x="717" y="226" width="6" height="410" fill="#FFFFFF"/>
  <circle cx="720" cy="431" r="22" fill="#FFFFFF" stroke="#D9E5E9"/>
  <path d="M714 431H726" stroke="#0C8EA0" stroke-width="3" stroke-linecap="round"/>
  <rect x="392" y="668" width="656" height="46" rx="8" fill="#F6FBFC" stroke="#D9E5E9"/>
  <text x="416" y="697" font-family="Inter, Arial, sans-serif" font-size="13" fill="#60717A">Output resolution</text>
  <text x="920" y="697" font-family="Inter, Arial, sans-serif" font-size="14" font-weight="800" fill="#172026">3840 x 2160</text>
  <rect x="1096" y="130" width="280" height="636" rx="8" fill="#FFFFFF" stroke="#D9E5E9"/>
  <text x="1120" y="170" font-family="Inter, Arial, sans-serif" font-size="18" font-weight="800" fill="#172026">Render</text>
  <text x="1120" y="196" font-family="Inter, Arial, sans-serif" font-size="13" fill="#60717A">Local canvas export</text>
  <rect x="1120" y="228" width="232" height="40" rx="8" fill="#0C8EA0"/>
  <text x="1197" y="253" font-family="Inter, Arial, sans-serif" font-size="14" font-weight="800" fill="white">Export</text>
  <text x="1120" y="318" font-family="Inter, Arial, sans-serif" font-size="13" font-weight="800" fill="#172026">Progress</text>
  <text x="1314" y="318" font-family="Inter, Arial, sans-serif" font-size="13" font-weight="800" fill="#172026">64%</text>
  <rect x="1120" y="338" width="232" height="10" rx="5" fill="#E4EEF2"/>
  <rect x="1120" y="338" width="148" height="10" rx="5" fill="#0C8EA0"/>
  <rect x="1120" y="386" width="102" height="70" rx="8" fill="#F9FCFD" stroke="#D9E5E9"/>
  <rect x="1250" y="386" width="102" height="70" rx="8" fill="#F9FCFD" stroke="#D9E5E9"/>
  <text x="1138" y="415" font-family="Inter, Arial, sans-serif" font-size="12" fill="#60717A">Elapsed</text>
  <text x="1138" y="439" font-family="Inter, Arial, sans-serif" font-size="16" font-weight="800" fill="#172026">01:18</text>
  <text x="1268" y="415" font-family="Inter, Arial, sans-serif" font-size="12" fill="#60717A">ETA</text>
  <text x="1268" y="439" font-family="Inter, Arial, sans-serif" font-size="16" font-weight="800" fill="#172026">00:42</text>
  <rect x="1120" y="512" width="232" height="112" rx="8" fill="#EAF7F1" stroke="#BFE5D1"/>
  <text x="1144" y="552" font-family="Inter, Arial, sans-serif" font-size="17" font-weight="800" fill="#172026">Result ready</text>
  <rect x="1144" y="574" width="184" height="34" rx="8" fill="#1C8D58"/>
  <text x="1188" y="596" font-family="Inter, Arial, sans-serif" font-size="13" font-weight="800" fill="white">Download</text>
</svg>
